<?xml version="1.0" encoding="iso-8859-1"?>
<!-- Generator: Adobe Illustrator 21.0.0, SVG Export Plug-In . SVG Version: 6.00 Build 0)  -->
<svg version="1.1" id="Capa_1" xmlns="http://www.w3.org/2000/svg" xmlns:xlink="http://www.w3.org/1999/xlink" x="0px" y="0px"
	 viewBox="0 0 512.001 512.001" style="enable-background:new 0 0 512.001 512.001;" xml:space="preserve">
<g>
	<g transform="translate(1 1)">
		<polygon style="fill:#A4C2F7;" points="191.853,101.401 263.533,101.401 263.533,67.267 191.853,67.267 150.893,67.267 
			58.733,67.267 58.733,101.401 150.893,101.401 		"/>
		<g>
			<path style="fill:#E3E7F2;" d="M67.267,53.614l-34.133-20.48v102.4l34.133-20.48c5.063-2.717,8.309-7.912,8.533-13.653V67.267
				C75.576,61.526,72.33,56.331,67.267,53.614z"/>
			<path style="fill:#E3E7F2;" d="M16.067,24.601h17.067c4.713,0,8.533,3.821,8.533,8.533v102.4c0,4.713-3.821,8.533-8.533,8.533
				H16.067c-4.713,0-8.533-3.82-8.533-8.533v-102.4C7.533,28.421,11.354,24.601,16.067,24.601z"/>
		</g>
		<path style="fill:#D4E1F4;" d="M383,152.601c-59.733-51.2-136.533-51.2-136.533-51.2V67.267c0,0,76.8,0,136.533-51.2V152.601z"/>
		<path style="fill:#A4C2F7;" d="M391.533,7.534H408.6c4.713,0,8.533,3.821,8.533,8.533v136.533c0,4.713-3.821,8.533-8.533,8.533
			h-17.067c-4.713,0-8.533-3.821-8.533-8.533V16.067C383,11.354,386.821,7.534,391.533,7.534z"/>
		<path style="fill:#E3E7F2;" d="M169.667,24.601c9.426,0,17.067,7.641,17.067,17.067v102.4H152.6v-102.4
			C152.6,32.242,160.241,24.601,169.667,24.601z"/>
		<path style="fill:#A4C2F7;" d="M229.4,156.441v30.293H109.933v-30.293c0.011-4.456,1.447-8.791,4.096-12.373
			c3.902-5.386,10.16-8.562,16.811-8.533h77.653C220.032,135.553,229.381,144.902,229.4,156.441z"/>
		<path style="fill:#E3E7F2;" d="M203.8,164.974v21.76h-93.867v-30.293c0.011-4.456,1.447-8.791,4.096-12.373h68.864
			C194.432,144.086,203.781,153.435,203.8,164.974z"/>
		<path style="fill:#A4C2F7;" d="M92.867,178.201h153.6c9.426,0,17.067,7.641,17.067,17.067v290.133
			c0,9.426-7.641,17.067-17.067,17.067h-153.6c-9.426,0-17.067-7.641-17.067-17.067V195.267
			C75.8,185.842,83.441,178.201,92.867,178.201z"/>
		<path style="fill:#E3E7F2;" d="M92.867,178.201h128c9.426,0,17.067,7.641,17.067,17.067v290.133
			c0,9.426-7.641,17.067-17.067,17.067h-128c-9.426,0-17.067-7.641-17.067-17.067V195.267
			C75.8,185.842,83.441,178.201,92.867,178.201z"/>
		<circle style="fill:#FFFFFF;" cx="169.667" cy="314.734" r="51.2"/>
	</g>
	<path style="fill:#FFFFFF;" d="M153.6,136.534h-21.76c-6.651-0.029-12.908,3.148-16.811,8.533
		c-2.649,3.582-4.085,7.918-4.096,12.373v21.76H93.867c-9.414,0.028-17.039,7.653-17.067,17.067v290.133
		c0.028,9.414,7.653,17.039,17.067,17.067h25.6c-9.414-0.028-17.039-7.653-17.067-17.067V196.267
		c0.028-9.414,7.653-17.039,17.067-17.067h17.067v-21.76c0.011-4.456,1.447-8.791,4.096-12.373
		c3.902-5.386,10.16-8.562,16.811-8.534L153.6,136.534z"/>
	<g>
		<polygon style="fill:#FFFFFF;" points="85.333,196.267 85.333,307.201 85.333,486.401 68.267,486.401 68.267,307.201 
			68.267,196.267 		"/>
		<g>
			<path style="fill:#428DFF;" d="M76.8,273.067c3.467,0.02,6.601-2.059,7.931-5.261s0.59-6.89-1.872-9.331l-1.28-1.024
				c-0.476-0.323-0.992-0.581-1.536-0.768c-0.484-0.246-1.001-0.419-1.536-0.512c-0.564-0.095-1.135-0.152-1.707-0.171
				c-2.259,0.033-4.422,0.917-6.059,2.475c-0.771,0.816-1.38,1.772-1.792,2.816c-1.287,3.183-0.586,6.825,1.792,9.301
				c0.816,0.771,1.772,1.38,2.816,1.792C74.583,272.822,75.685,273.054,76.8,273.067z"/>
			<path style="fill:#428DFF;" d="M196.267,435.201c4.713,0,8.533-3.821,8.533-8.533s-3.821-8.533-8.533-8.533h-51.2
				c-4.713,0-8.533,3.82-8.533,8.533s3.821,8.533,8.533,8.533H196.267z"/>
			<path style="fill:#428DFF;" d="M119.467,460.801c0,4.713,3.821,8.533,8.533,8.533h85.333c4.713,0,8.533-3.821,8.533-8.533
				s-3.821-8.533-8.533-8.533H128C123.287,452.267,119.467,456.088,119.467,460.801z"/>
			<path style="fill:#428DFF;" d="M409.6,0.001h-17.067c-7.582,0.035-14.232,5.069-16.324,12.356
				C320,58.949,248.183,59.734,247.467,59.734h-51.2V42.667c0-14.138-11.462-25.6-25.6-25.6c-14.138,0-25.6,11.462-25.6,25.6v17.067
				H83.678c-1.614-4.731-4.581-8.885-8.533-11.947L50.406,29.278c-2.126-7.222-8.745-12.189-16.273-12.211H17.067
				C7.641,17.067,0,24.708,0,34.134v102.4c0,9.426,7.641,17.067,17.067,17.067h17.067c7.523-0.039,14.133-4.999,16.273-12.211
				l24.687-18.509c3.952-3.062,6.919-7.215,8.533-11.947h61.44v25.6H128c-14.138,0-25.6,11.462-25.6,25.6v8.533h-8.533
				c-14.138,0-25.6,11.462-25.6,25.6v34.133c0,4.713,3.821,8.533,8.533,8.533c4.713,0,8.533-3.821,8.533-8.533v-34.133
				c0-4.713,3.821-8.533,8.533-8.533h153.6c4.713,0,8.533,3.821,8.533,8.533v290.133c0,4.713-3.82,8.533-8.533,8.533h-153.6
				c-4.713,0-8.533-3.82-8.533-8.533V298.667c0-4.713-3.82-8.533-8.533-8.533c-4.713,0-8.533,3.82-8.533,8.533v187.733
				c0,14.138,11.462,25.6,25.6,25.6h153.6c14.138,0,25.6-11.462,25.6-25.6V196.267c0-14.138-11.462-25.6-25.6-25.6h-8.533v-8.533
				c0-14.138-11.462-25.6-25.6-25.6h-17.067v-25.6h51.2c46.799,2.01,91.804,18.572,128.742,47.377
				c2.093,7.288,8.742,12.321,16.324,12.356H409.6c9.426,0,17.067-7.641,17.067-17.067V17.067
				C426.667,7.642,419.026,0.001,409.6,0.001z M256,76.434c42.838-3.16,84.067-17.646,119.467-41.975V136.21
				c-35.4-24.329-76.629-38.815-119.467-41.975V76.434z M17.067,136.534v-102.4h17.067v102.4H17.067z M64.853,109.227L51.2,119.467
				V51.201l13.653,10.24c2.149,1.612,3.413,4.141,3.413,6.827v34.133C68.267,105.086,67.002,107.616,64.853,109.227z M85.333,93.867
				V76.801h59.733v17.067H85.333z M221.867,162.134v8.533h-102.4v-8.533c0-4.713,3.821-8.533,8.533-8.533h85.333
				C218.046,153.601,221.867,157.421,221.867,162.134z M162.133,136.534V42.667c0-4.713,3.821-8.533,8.533-8.533
				c4.713,0,8.533,3.821,8.533,8.533v93.867H162.133z M196.267,76.801h42.667v17.067h-42.667V76.801z M392.533,153.601V17.067H409.6
				v136.533H392.533z"/>
			<path style="fill:#428DFF;" d="M170.667,256.001c-32.99,0-59.733,26.743-59.733,59.733s26.744,59.733,59.733,59.733
				s59.733-26.744,59.733-59.733C230.362,282.76,203.641,256.038,170.667,256.001z M170.667,358.401
				c-23.564,0-42.667-19.103-42.667-42.667c0-23.564,19.103-42.667,42.667-42.667s42.667,19.103,42.667,42.667
				C213.305,339.286,194.219,358.372,170.667,358.401z"/>
			<path style="fill:#428DFF;" d="M452.267,51.201c1.683-0.001,3.327-0.5,4.727-1.434l51.2-34.133
				c3.828-2.649,4.826-7.876,2.245-11.749s-7.791-4.963-11.708-2.45l-51.2,34.133c-3.129,2.086-4.523,5.975-3.433,9.574
				C445.188,48.74,448.506,51.201,452.267,51.201z"/>
			<path style="fill:#428DFF;" d="M457.003,120.901c-3.921-2.616-9.22-1.557-11.836,2.364c-2.616,3.921-1.557,9.22,2.364,11.836
				l51.2,34.133c2.536,1.692,5.783,1.902,8.517,0.552c2.734-1.351,4.539-4.057,4.736-7.1c0.197-3.043-1.244-5.959-3.781-7.651
				L457.003,120.901z"/>
			<path style="fill:#428DFF;" d="M503.467,76.801h-51.2c-4.713,0-8.533,3.82-8.533,8.533c0,4.713,3.82,8.533,8.533,8.533h51.2
				c4.713,0,8.533-3.821,8.533-8.533C512,80.621,508.18,76.801,503.467,76.801z"/>
			<path style="fill:#428DFF;" d="M176.725,309.675c-2.064-1.977-4.957-2.835-7.765-2.304c-0.535,0.093-1.052,0.266-1.536,0.512
				c-0.544,0.186-1.06,0.445-1.536,0.768l-1.28,1.024c-0.753,0.83-1.359,1.782-1.792,2.816c-0.437,1.026-0.669,2.128-0.683,3.243
				c0.033,2.259,0.917,4.422,2.475,6.059c0.405,0.367,0.833,0.709,1.28,1.024c0.476,0.323,0.992,0.581,1.536,0.768
				c0.484,0.247,1.001,0.419,1.536,0.512c0.564,0.095,1.135,0.152,1.707,0.171c2.259-0.033,4.422-0.917,6.059-2.475l1.024-1.28
				c0.323-0.476,0.581-0.992,0.768-1.536c0.246-0.484,0.419-1.001,0.512-1.536c0.099-0.564,0.156-1.134,0.171-1.707
				c-0.013-1.115-0.245-2.217-0.683-3.243C178.084,311.457,177.478,310.505,176.725,309.675z"/>
		</g>
	</g>
</g>
<g>
</g>
<g>
</g>
<g>
</g>
<g>
</g>
<g>
</g>
<g>
</g>
<g>
</g>
<g>
</g>
<g>
</g>
<g>
</g>
<g>
</g>
<g>
</g>
<g>
</g>
<g>
</g>
<g>
</g>
</svg>
