<?xml version="1.0" encoding="iso-8859-1"?>
<!-- Generator: Adobe Illustrator 19.0.0, SVG Export Plug-In . SVG Version: 6.00 Build 0)  -->
<svg version="1.1" id="Capa_1" xmlns="http://www.w3.org/2000/svg" xmlns:xlink="http://www.w3.org/1999/xlink" x="0px" y="0px"
	 viewBox="0 0 512 512" style="enable-background:new 0 0 512 512;" xml:space="preserve">
<path style="fill:#5A54E0;" d="M391.203,256.299v-65.734c0-9.013,7.374-16.387,16.387-16.387l0,0
	c9.013,0,16.387,7.374,16.387,16.387v65.734H391.203z"/>
<path style="fill:#FF5D5D;" d="M205.423,260.143v38.9L68.912,331.462c-18.525,4.399-31.603,20.947-31.603,39.988V502h437.383v-31.5
	V398v-26.525c0-19.052-13.093-35.606-31.633-39.995l-137.037-32.437V259.98L205.423,260.143z"/>
<g>
	<path style="fill:#FFCDAC;" d="M334,154.311v43.763c0,42.298-34.289,76.587-76.587,76.587h-2.826
		c-42.298,0-76.587-34.289-76.587-76.587v-43.763"/>
	<path style="fill:#FFCDAC;" d="M178,205.977h-8c-13.255,0-24-10.745-24-24l0,0c0-13.255,10.745-24,24-24h8"/>
	<path style="fill:#FFCDAC;" d="M334,205.977h8c13.255,0,24-10.745,24-24l0,0c0-13.255-10.745-24-24-24h-8"/>
</g>
<path style="fill:#ADE5FF;" d="M364,314H148c-18.778,0-34,15.222-34,34v154h284V348C398,329.222,382.778,314,364,314z"/>
<circle style="fill:#4DBAF6;" cx="256" cy="410" r="28"/>
<polygon style="fill:#7D9BFF;" points="174.667,119.059 109.157,85.787 258.373,10 407.59,85.787 342.08,119.059 "/>
<path style="fill:#5A54E0;" d="M174.667,95.368v58.287c9.362-4.056,19.686-6.308,30.537-6.308c20.676,0,39.433,8.177,53.261,21.457
	c13.828-13.28,32.585-21.457,53.261-21.457c10.78,0,21.04,2.222,30.353,6.228V95.368l-3.21-2.19
	C289.135,59.256,223.478,60.132,174.667,95.368L174.667,95.368z"/>
<path d="M256,372c-20.953,0-38,17.047-38,38s17.047,38,38,38s38-17.047,38-38S276.953,372,256,372z M256,428
	c-9.925,0-18-8.075-18-18s8.075-18,18-18c9.925,0,18,8.075,18,18S265.925,428,256,428z"/>
<path d="M106.51,165.99c-2.63,0-5.21,1.07-7.07,2.93c-1.859,1.86-2.93,4.44-2.93,7.07s1.07,5.21,2.93,7.07s4.44,2.93,7.07,2.93
	s5.21-1.07,7.07-2.93c1.859-1.86,2.93-4.44,2.93-7.07s-1.07-5.21-2.93-7.07S109.14,165.99,106.51,165.99z"/>
<path d="M77.139,176.005c0-5.523-4.478-10-10-10H10c-5.522,0-10,4.477-10,10s4.478,10,10,10h57.139
	C72.661,186.005,77.139,181.528,77.139,176.005z"/>
<path d="M10,138h17.964c5.522,0,10-4.477,10-10s-4.478-10-10-10H10c-5.522,0-10,4.477-10,10C0,133.523,4.478,138,10,138z"/>
<path d="M59.326,138h47.184c5.522,0,10-4.477,10-10s-4.478-10-10-10H59.326c-5.522,0-10,4.477-10,10
	C49.326,133.523,53.804,138,59.326,138z"/>
<path d="M222.5,200.37c2.63,0,5.21-1.07,7.069-2.93c1.86-1.86,2.931-4.44,2.931-7.07s-1.07-5.21-2.931-7.07
	c-1.859-1.86-4.439-2.93-7.069-2.93s-5.21,1.07-7.07,2.93s-2.93,4.44-2.93,7.07s1.069,5.21,2.93,7.07S219.87,200.37,222.5,200.37z"
	/>
<path d="M289.5,200.37c2.63,0,5.21-1.07,7.069-2.93c1.86-1.86,2.931-4.44,2.931-7.07s-1.07-5.21-2.931-7.07
	c-1.859-1.86-4.439-2.93-7.069-2.93s-5.21,1.07-7.07,2.93s-2.93,4.44-2.93,7.07s1.069,5.21,2.93,7.07S286.87,200.37,289.5,200.37z"
	/>
<path d="M153.99,400c-2.631,0-5.21,1.07-7.07,2.93s-2.93,4.44-2.93,7.07s1.069,5.21,2.93,7.07s4.439,2.93,7.07,2.93
	c2.63,0,5.21-1.07,7.069-2.93c1.87-1.86,2.931-4.44,2.931-7.07s-1.061-5.21-2.931-7.07C159.2,401.07,156.63,400,153.99,400z"/>
<path d="M445.362,321.749l-129.341-30.615V261.75c12.998-11.973,22.333-27.862,26.113-45.776C360.821,215.9,376,200.679,376,181.977
	c0-15.239-10.078-28.169-23.92-32.474v-24.307l45.51-23.114v64.071c-9.604,3.949-16.387,13.402-16.387,24.413V256.3
	c0,5.523,4.478,10,10,10h32.773c5.522,0,10-4.477,10-10v-65.734c0-11.011-6.782-20.464-16.387-24.413V86.436
	c0-0.127-0.014-0.251-0.019-0.377c0.002-0.091,0.019-0.18,0.019-0.272c0-3.765-2.114-7.211-5.472-8.916L262.901,1.084
	c-2.846-1.445-6.211-1.445-9.057,0L104.628,76.871c-3.357,1.705-5.472,5.151-5.472,8.916s2.114,7.211,5.472,8.916l60.039,30.493
	v23.202C148.444,150.966,136,165.044,136,181.977c0,18.702,15.179,33.923,33.865,33.997c3.726,17.658,12.85,33.347,25.558,45.259
	v29.907L66.602,321.733c-23.135,5.494-39.293,25.938-39.293,49.717V502c0,5.523,4.478,10,10,10H114h284h76.691
	c5.522,0,10-4.477,10-10v-31.5c0-5.523-4.478-10-10-10s-10,4.477-10,10V492H408V348c0-5.333-0.955-10.447-2.701-15.182l35.456,8.393
	c14.094,3.336,23.937,15.781,23.937,30.264V398c0,5.523,4.478,10,10,10s10-4.477,10-10v-26.525
	C484.691,347.678,468.519,327.23,445.362,321.749z M184.667,139.788v-39.187c44.411-29.552,102.848-29.658,147.413,0.06v39.082
	c-6.622-1.593-13.427-2.396-20.354-2.396c-19.464,0-38.063,6.424-53.262,18.25c-15.198-11.826-33.798-18.25-53.262-18.25
	C198.212,137.348,191.346,138.165,184.667,139.788z M344,195.817v-27.681c6.773,0.976,12,6.801,12,13.84
	S350.773,194.842,344,195.817z M413.977,246.299h-12.773v-55.734c0-3.462,2.925-6.387,6.387-6.387s6.387,2.925,6.387,6.387
	L413.977,246.299L413.977,246.299z M131.239,85.787l127.134-64.571l127.134,64.571l-33.427,16.977v-7.396
	c0-3.306-1.634-6.398-4.365-8.262l-3.211-2.189c-53.033-36.173-123.637-35.232-175.69,2.343c-2.604,1.88-4.146,4.896-4.146,8.108
	v7.396L131.239,85.787z M156,181.977c0-7.039,5.227-12.865,12-13.84v27.681C161.227,194.842,156,189.016,156,181.977z M188,198.074
	v-38.488c5.576-1.483,11.33-2.238,17.203-2.238c17.344,0,33.799,6.63,46.335,18.67c1.935,1.858,4.431,2.788,6.927,2.788
	s4.992-0.929,6.927-2.788c12.536-12.04,28.991-18.67,46.335-18.67c4.158,0,8.254,0.395,12.273,1.14v39.586
	c0,36.716-29.871,66.587-66.587,66.587h-2.826C217.871,264.661,188,234.79,188,198.074z M254.587,284.661h2.826
	c13.866,0,26.978-3.281,38.608-9.1v23.482c0,1.789,0.479,3.484,1.32,4.957h-83.239c0.842-1.473,1.32-3.168,1.32-4.957v-23.759
	C227.19,281.278,240.5,284.661,254.587,284.661z M47.309,371.45c0-14.472,9.834-26.915,23.914-30.258l35.501-8.431
	C104.964,337.512,104,342.645,104,348v144H47.309V371.45z M164.007,492v-46.333c0-5.523-4.478-10-10-10s-10,4.477-10,10V492H124V348
	c0-13.234,10.767-24,24-24h216c13.233,0,24,10.766,24,24v144H164.007z"/>
<path d="M474.689,420.75c-2.63,0-5.21,1.07-7.069,2.93c-1.86,1.86-2.931,4.44-2.931,7.07s1.07,5.21,2.931,7.07
	c1.859,1.86,4.439,2.93,7.069,2.93s5.21-1.07,7.07-2.93s2.93-4.44,2.93-7.07s-1.069-5.21-2.93-7.07
	C479.899,421.82,477.319,420.75,474.689,420.75z"/>
<path d="M502,281h-64.914c-5.522,0-10,4.477-10,10s4.478,10,10,10H502c5.522,0,10-4.477,10-10S507.522,281,502,281z"/>
<g>
</g>
<g>
</g>
<g>
</g>
<g>
</g>
<g>
</g>
<g>
</g>
<g>
</g>
<g>
</g>
<g>
</g>
<g>
</g>
<g>
</g>
<g>
</g>
<g>
</g>
<g>
</g>
<g>
</g>
</svg>
