<?xml version="1.0" encoding="iso-8859-1"?>
<!-- Generator: Adobe Illustrator 19.0.0, SVG Export Plug-In . SVG Version: 6.00 Build 0)  -->
<svg version="1.1" id="Capa_1" xmlns="http://www.w3.org/2000/svg" xmlns:xlink="http://www.w3.org/1999/xlink" x="0px" y="0px"
	 viewBox="0 0 512 512" style="enable-background:new 0 0 512 512;" xml:space="preserve">
<path style="fill:#FFCDAC;" d="M199.674,158.099L199.674,158.099c-33.402,0-60.48,27.078-60.48,60.48v23.94
	c0,33.402,27.078,60.48,60.48,60.48l0,0c33.402,0,60.48-27.078,60.48-60.48v-23.94C260.154,185.176,233.076,158.099,199.674,158.099
	z"/>
<path style="fill:#FFEFD5;" d="M265.991,10.008H158.02c-11.059,0-20.024,8.965-20.024,20.024l0,0v177.994l0,0
	c0-11.059,8.965-20.024,20.024-20.024h107.971V10.008z"/>
<path style="fill:#FFFFFF;" d="M10,10.008h107.971c11.059,0,20.024,8.965,20.024,20.024l0,0v177.994l0,0
	c0-11.059-8.965-20.024-20.024-20.024H10V10.008z"/>
<path style="fill:#FFB954;" d="M246.667,302.998h-93.672c-49.151,0-88.997,39.846-88.997,88.997v109.996h271.666V391.995
	C335.664,342.844,295.818,302.998,246.667,302.998z"/>
<path style="fill:#C9F3FF;" d="M468.001,323.998H252.009c-18.777,0-33.999,15.221-33.999,33.999v143.995H502V357.997
	C502,339.22,486.779,323.998,468.001,323.998z"/>
<circle style="fill:#72D8FF;" cx="360.008" cy="409.997" r="27.999"/>
<path style="fill:#FFFFFF;" d="M199.674,158.099L199.674,158.099c-33.402,0-60.48,27.078-60.48,60.48v23.94
	c0,33.402,27.078,60.48,60.48,60.48l0,0c33.402,0,60.48-27.078,60.48-60.48v-23.94C260.154,185.176,233.076,158.099,199.674,158.099
	z"/>
<path style="fill:#A0E557;" d="M483.009,64.006H374.996c-10.489,0-18.991,8.503-18.991,18.991v98.862l-26.143,26.143l26.143,26.143
	v10.865c0,10.489,8.503,18.991,18.991,18.991h108.013c10.489,0,18.991-8.503,18.991-18.991V82.998
	C502,72.509,493.498,64.006,483.009,64.006z"/>
<path d="M360.005,371.996c-20.952,0-37.999,17.046-37.999,37.999s17.046,37.999,37.999,37.999c20.952,0,37.999-17.046,37.999-37.999
	S380.957,371.996,360.005,371.996z M360.005,427.994c-9.925,0-17.999-8.075-17.999-17.999s8.075-17.999,17.999-17.999
	c9.925,0,17.999,8.075,17.999,17.999S369.929,427.994,360.005,427.994z"/>
<path d="M468.001,313.998H252.009c-24.261,0-43.999,19.737-43.999,43.999v133.996h-70.015v-53.998c0-5.522-4.478-10-10-10
	s-10,4.478-10,10v53.998H73.998v-99.997c0-43.56,35.438-78.997,78.997-78.997c5.522,0,10-4.478,10-10
	c0-0.112-0.013-0.221-0.017-0.333c10.696,6.55,23.262,10.333,36.697,10.333c38.863,0,70.48-31.617,70.48-70.48v-23.94
	c0-38.863-31.617-70.479-70.48-70.479c-38.862,0-70.479,31.617-70.479,70.479v23.94c0,19.794,8.214,37.697,21.397,50.51
	c-53.482,1.281-96.595,45.183-96.595,98.967v109.996c0,5.522,4.478,10,10,10H502c5.522,0,10-4.478,10-10V357.997
	C512,333.736,492.262,313.998,468.001,313.998z M149.194,242.518v-23.94c0-27.834,22.645-50.479,50.479-50.479
	s50.48,22.645,50.48,50.479v23.94c0,27.834-22.645,50.48-50.48,50.48S149.194,270.354,149.194,242.518z M335.664,491.992H228.009
	V357.997c0-13.233,10.767-23.999,23.999-23.999h215.993c13.233,0,23.999,10.767,23.999,23.999v93.935h-46.749
	c-5.522,0-10,4.478-10,10s4.478,10,10,10h46.749v20.062L335.664,491.992L335.664,491.992z"/>
<path d="M405.517,451.943c-2.631,0-5.211,1.069-7.07,2.93c-1.86,1.86-2.93,4.439-2.93,7.07c0,2.63,1.069,5.21,2.93,7.069
	c1.859,1.86,4.439,2.931,7.07,2.931c2.64,0,5.21-1.07,7.069-2.931c1.87-1.859,2.931-4.439,2.931-7.069
	c0-2.631-1.061-5.21-2.931-7.07C410.726,453.013,408.156,451.943,405.517,451.943z"/>
<path d="M483.009,54.007H374.997c-15.985,0-28.991,13.005-28.991,28.991v94.72l-23.214,23.213c-3.905,3.905-3.905,10.237,0,14.143
	l23.214,23.213v6.723c0,15.985,13.006,28.991,28.991,28.991H483.01c15.984,0,28.99-13.006,28.99-28.991V82.998
	C512,67.012,498.994,54.007,483.009,54.007z M492.001,245.009c0,4.958-4.033,8.992-8.991,8.992H374.997
	c-4.958,0-8.992-4.034-8.992-8.992v-10.865c0-2.652-1.054-5.196-2.929-7.071l-19.071-19.071l19.071-19.071
	c1.875-1.875,2.929-4.419,2.929-7.071V82.998c0-4.958,4.034-8.992,8.992-8.992H483.01c4.958,0,8.991,4.034,8.991,8.992V245.009z"/>
<path d="M265.991,133.004c-2.63,0-5.21,1.07-7.07,2.93c-1.86,1.86-2.93,4.44-2.93,7.07s1.069,5.21,2.93,7.07s4.44,2.93,7.07,2.93
	s5.21-1.07,7.069-2.93c1.86-1.86,2.931-4.44,2.931-7.07s-1.07-5.21-2.931-7.07C271.201,134.074,268.621,133.004,265.991,133.004z"/>
<path d="M104.997,188.002c0-5.523-4.478-10-10-10H19.999V20.008h97.972c5.528,0,10.025,4.497,10.025,10.025v128.067
	c0,5.523,4.478,10,10,10s10-4.477,10-10V30.033c0-5.528,4.497-10.025,10.025-10.025h97.972v89.01c0,5.523,4.478,10,10,10
	s10-4.477,10-10v-99.01c0-5.523-4.478-10-10-10H158.02c-7.688,0-14.708,2.908-20.024,7.677c-5.317-4.77-12.337-7.677-20.024-7.677
	H10c-5.522,0-10,4.477-10,10v177.994c0,5.523,4.478,10,10,10h84.997C100.519,198.002,104.997,193.525,104.997,188.002z"/>
<path d="M455.218,110.005h-50.323c-5.522,0-10,4.477-10,10c0,5.523,4.478,10,10,10h50.323c5.522,0,10-4.477,10-10
	C465.218,114.482,460.741,110.005,455.218,110.005z"/>
<path d="M455.218,154.003h-50.323c-5.522,0-10,4.477-10,10s4.478,10,10,10h50.323c5.522,0,10-4.477,10-10
	S460.741,154.003,455.218,154.003z"/>
<path d="M455.218,198.002h-50.323c-5.522,0-10,4.477-10,10s4.478,10,10,10h50.323c5.522,0,10-4.477,10-10
	S460.741,198.002,455.218,198.002z"/>
<path d="M97.144,45.007H46.82c-5.522,0-10,4.477-10,10s4.478,10,10,10h50.323c5.522,0,10-4.477,10-10S102.667,45.007,97.144,45.007z
	"/>
<path d="M97.144,89.006H46.82c-5.522,0-10,4.477-10,10s4.478,10,10,10h50.323c5.522,0,10-4.477,10-10S102.667,89.006,97.144,89.006z
	"/>
<path d="M97.144,133.004H46.82c-5.522,0-10,4.477-10,10s4.478,10,10,10h50.323c5.522,0,10-4.477,10-10
	S102.667,133.004,97.144,133.004z"/>
<path d="M225.14,45.007h-50.323c-5.522,0-10,4.477-10,10s4.478,10,10,10h50.323c5.522,0,10-4.477,10-10
	S230.662,45.007,225.14,45.007z"/>
<path d="M225.14,89.006h-50.323c-5.522,0-10,4.477-10,10s4.478,10,10,10h50.323c5.522,0,10-4.477,10-10
	S230.662,89.006,225.14,89.006z"/>
<g>
</g>
<g>
</g>
<g>
</g>
<g>
</g>
<g>
</g>
<g>
</g>
<g>
</g>
<g>
</g>
<g>
</g>
<g>
</g>
<g>
</g>
<g>
</g>
<g>
</g>
<g>
</g>
<g>
</g>
</svg>
